<?xml version="1.0" standalone="no"?>
<!DOCTYPE svg PUBLIC "-//W3C//DTD SVG 1.1//EN" "http://www.w3.org/Graphics/SVG/1.1/DTD/svg11.dtd" >
<svg xmlns="http://www.w3.org/2000/svg">
<metadata>Generated by IcoMoon</metadata>
<defs>
<font id="icons" horiz-adv-x="1024">
<font-face units-per-em="1024" ascent="960" descent="-64" />
<missing-glyph horiz-adv-x="1024" />
<glyph unicode="&#x20;" horiz-adv-x="512" d="" />
<glyph unicode="&#xe900;" glyph-name="ask" d="M320 192h128v-128h-128v128zM320 832v-128h256v-128h-256v-256h128v128h256v384h-384z" />
<glyph unicode="&#xe901;" glyph-name="connect" d="M384 128v128h256v-128h-256zM128 640h768v128h-768v-128zM768 384v128h-512v-128h512z" />
<glyph unicode="&#xe902;" glyph-name="copy" d="M128 576h512v-512h-512v512zM384 832v-128h384v-384h128v512h-512z" />
<glyph unicode="&#xe903;" glyph-name="dazzle" d="M864 544l-352-352-352 352 160 160h384l160-160z" />
<glyph unicode="&#xe904;" glyph-name="forbid" d="M602.496 448l135.776-135.776-90.496-90.496-135.776 135.776-135.776-135.776-90.496 90.496 135.776 135.776-135.776 135.776 90.496 90.496 135.776-135.776 135.776 135.776 90.496-90.496-135.776-135.776z" />
<glyph unicode="&#xe905;" glyph-name="forward" d="M714.048 448l-271.52-271.52-90.528 90.496 181.024 181.024-181.024 181.024 90.496 90.496 271.552-271.52z" />
<glyph unicode="&#xe906;" glyph-name="go" d="M887.296 447.232l-271.52-271.424-90.496 90.72 116.992 117.472h-450.272v128h450.272l-117.024 116.608 90.496 90.112 271.552-271.488z" />
<glyph unicode="&#xe907;" glyph-name="link" d="M896 576v-384h-384v128h256v128h-256v128h384zM256 448v128h256v128h-384v-384h384v128h-256z" />
<glyph unicode="&#xe908;" glyph-name="load" d="M783.36 344.224l-271.52-271.52-271.52 271.52 90.56 90.496 117.12-116.992v450.272h128v-450.272l116.928 117.024 90.432-90.528z" />
<glyph unicode="&#xe909;" glyph-name="love" d="M896 544l-384-384-384 384 192 192 192-197.536 192 197.536 192-192z" />
<glyph unicode="&#xe90a;" glyph-name="navigate" d="M874.048 448l-106.048-106.048v-149.952h-149.952l-106.048-106.048-106.048 106.048h-149.952v149.952l-106.048 106.048 106.048 106.048v149.952h149.952l106.048 106.048 106.048-106.048h149.952v-149.952l106.048-106.048z" />
<glyph unicode="&#xe90b;" glyph-name="pin" d="M768 544v-224h-192v-256h-128v256h-192v224h128v160h-64v128h384v-128h-64v-160h128z" />
<glyph unicode="&#xe90c;" glyph-name="reply" d="M832 384h-450.112l117.024-116.896-90.496-90.4-271.52 271.52 271.52 271.488 90.496-90.56-117.024-117.152h450.112v-128z" />
<glyph unicode="&#xe90d;" glyph-name="rewind" d="M490.976 448l181.024-181.024-90.496-90.496-271.552 271.52 271.52 271.52 90.528-90.496-181.024-181.024z" />
<glyph unicode="&#xe90e;" glyph-name="solve" d="M896 576v-128h-128v-192h-192v-128h-128v128h-192v192h-128v128h128v192h192v-128h128v128h192v-192h128z" />
<glyph unicode="&#xe90f;" glyph-name="accommodate" d="M256 64v480l256 288 256-288v-480h-512z" />
<glyph unicode="&#xe910;" glyph-name="add" d="M768 384h-192v-192h-128v192h-192v128h192v192h128v-192h192v-128z" />
<glyph unicode="&#xe911;" glyph-name="adjust" d="M832 704v-128h-128v-128h-128v128h-384v128h384v128h128v-128h128zM448 448h-128v-128h-128v-128h128v-128h128v128h384v128h-384v128z" />
<glyph unicode="&#xe912;" glyph-name="alarm" d="M832 320v-128h-256v-128h-128v128h-256v128h128v384h128v128h128v-128h128v-384h128z" />
<glyph unicode="&#xe913;" glyph-name="alert" d="M576 832v-512h-128v512h128zM448 64h128v128h-128v-128z" />
<glyph unicode="&#xe914;" glyph-name="anchor" d="M896 416l-384-384-384 384 89.6 89.6 230.4-230.4v332.8h-128v128h128v128h128v-128h128v-128h-128v-329.6l230.4 230.4 89.6-92.8z" />
<glyph unicode="&#xe915;" glyph-name="arrest" d="M832 832v-768h-128v768h128zM448 64h128v768h-128v-768zM192 64h128v768h-128v-768z" />
<glyph unicode="&#xe916;" glyph-name="ascend" d="M896 832v-768h-768v128h128v128h128v128h128v128h128v128h128v128h128z" />
<glyph unicode="&#xe917;" glyph-name="attract" d="M576 192v128h-256v256h256v128h-384v-512h384zM832 576h-128v128h128v-128zM832 192h-128v128h128v-128z" />
<glyph unicode="&#xe918;" glyph-name="bake" d="M256 192h512v-128h-512v128zM256 832v-512h512v512h-512z" />
<glyph unicode="&#xe919;" glyph-name="barbecue" d="M928 736v-96h-96v-128h-128v-448h-128v448h-128v-448h-128v448h-128v128h-96v96h96v96h640v-96h96z" />
<glyph unicode="&#xe91a;" glyph-name="believe" d="M640 832v-512h-512v512h512zM640 320v-128h128v128h-128zM768 192v-128h128v128h-128z" />
<glyph unicode="&#xe91b;" glyph-name="bite" d="M768 384l128-128v-128h-768v128l128 128 128-128 128 128 128-128 128 128zM128 768v-128l128-128 128 128 128-128 128 128 128-128 128 128v128h-768z" />
<glyph unicode="&#xe91c;" glyph-name="blaze" d="M512 448h128v-384h-384v384h128v128h128v-128zM640 832v-384h128v384h-128z" />
<glyph unicode="&#xe91d;" glyph-name="bloom" d="M832 320v-128h-256v-128h-128v128h-256v128h256v128h-128v256h128v128h128v-128h128v-256h-128v-128h256z" />
<glyph unicode="&#xe91e;" glyph-name="blow" d="M704 640v256h-256v-128h-256v-256h128v-256h128v-256h128v384h256v256h-128zM576 512h-128v128h128v-128z" />
<glyph unicode="&#xe91f;" glyph-name="bookmark" d="M768 832v-768l-256 256-256-256v768h512z" />
<glyph unicode="&#xe920;" glyph-name="broadcast" d="M192 576h128v-256h-128v256zM704 832v-768h128v768h-128zM448 192h128v512h-128v-512z" />
<glyph unicode="&#xe921;" glyph-name="build" d="M896 576v-512h-768v384h128v384h256v-512h128v128h128v128h128z" />
<glyph unicode="&#xe922;" glyph-name="caffeinate" d="M864 704v-128h-128v-512h-512v640h640z" />
<glyph unicode="&#xe923;" glyph-name="calculate" d="M192 448h128v-128h-128v128zM192 64h128v128h-128v-128zM448 64h128v128h-128v-128zM192 832v-256h640v256h-640zM704 320h128v128h-128v-128zM704 64h128v128h-128v-128zM448 320h128v128h-128v-128z" />
<glyph unicode="&#xe924;" glyph-name="call" d="M896 256l-192-192-576 576 192 192 192-192-96-96 192-192 96 96 192-192z" />
<glyph unicode="&#xe925;" glyph-name="camp" d="M873.6 384l-182.4-182.4-179.2 182.4-182.4-182.4-179.2 182.4 361.6 361.6 361.6-361.6z" />
<glyph unicode="&#xe926;" glyph-name="capture" d="M128 896v-896h768v896h-768zM768 256h-512v512h512v-512z" />
<glyph unicode="&#xe927;" glyph-name="celebrate" d="M576 704h-128v128h128v-128zM768 256v128h-192v192h-128v-192h-192v-128h-128v-192h768v192h-128z" />
<glyph unicode="&#xe928;" glyph-name="charge" d="M128 704h384v-512h-384v512zM768 576v128h-128v-512h128v128h128v256h-128z" />
<glyph unicode="&#xe929;" glyph-name="chop" d="M896 640v-384h-128v384h128zM128 256h256v384h-256v-384zM512 256h128v384h-128v-384z" />
<glyph unicode="&#xe92a;" glyph-name="clamber" d="M640 64h128v768h-128v-128h-256v128h-128v-768h128v128h256v-128zM384 320v256h256v-256h-256z" />
<glyph unicode="&#xe92b;" glyph-name="climb" d="M919.296 429.248l-90.496-90.496-181.024 181.024-90.496-90.496 90.496-90.496-90.496-90.496-181.024 181.024-181.024-181.024-90.496 90.496 271.52 271.52 90.496-90.496 181.024 180.992 271.52-271.552z" />
<glyph unicode="&#xe92c;" glyph-name="close" d="M256 320h512v-128h-128v-128h-256v128h-128v128zM640 704v128h-256v-128h-128v-128h512v128h-128z" />
<glyph unicode="&#xe92d;" glyph-name="code" d="M384 192h128v-128h-384v128h128v128h128v-128zM896 192v128h-128v-128h128zM128 448v-128h128v128h-128zM640 64h128v128h-128v-128zM768 576v-128h128v384h-128v-128h-128v-128h128zM640 448v128h-128v128h128v128h-384v-128h-128v-128h128v-128h128v-128h128v-128h128v128h128v128h-128z" />
<glyph unicode="&#xe92e;" glyph-name="collect" d="M768 576v256h-512v-257.92l-128 0.16v-510.24h768v512h-128zM640 576h-256v128h256v-128z" />
<glyph unicode="&#xe92f;" glyph-name="condemn" d="M832 832v-256h-128v128h-256v-512h128v-128h-384v128h128v640h512z" />
<glyph unicode="&#xe930;" glyph-name="cook" d="M896 576v-128h-128v-384h-512v384h-128v128h128v128h512v-128h128z" />
<glyph unicode="&#xe931;" glyph-name="create" d="M704 832l128-128v-640h-640v768h512z" />
<glyph unicode="&#xe932;" glyph-name="crop" d="M640 704h-128v128h128v-128zM896 448v128h-128v-128h128zM896 192v128h-128v-128h128zM256 832v-128h128v128h-128zM640 448h128v-128h-128v-256h-512v512h256v128h128v-128h128v-128zM512 448h-256v-256h256v256zM896 832h-128v-128h128v128zM640 704v-128h128v128h-128z" />
<glyph unicode="&#xe933;" glyph-name="cry" d="M864 352l-160-160h-384l-160 160 352 352 352-352z" />
<glyph unicode="&#xe934;" glyph-name="cut" d="M485.504 448l271.52-271.52-90.496-90.496-271.52 271.52-90.496-90.496-90.496 90.496 90.464 90.496-90.496 90.496 90.496 90.496 90.496-90.496 271.52 271.52 90.496-90.496-271.488-271.52z" />
<glyph unicode="&#xe935;" glyph-name="decorate" d="M256 640l-128 128h256l-128-128zM768 128l128 128h-256l128-128zM640 768h-256l128-128 128 128zM896 768h-256l128-128 128 128zM512 128l128 128h-256l128-128zM256 384l128 128h-256l128-128zM512 384l128 128h-256l128-128zM768 384l128 128h-256l128-128zM256 128l128 128h-256l128-128z" />
<glyph unicode="&#xe936;" glyph-name="defend" d="M768 832v-512l-256-256-256 256v512h512z" />
<glyph unicode="&#xe937;" glyph-name="develop" d="M960 448l-271.52-271.52-90.496 90.496 180.992 181.024-181.024 181.024 90.496 90.496 271.552-271.52zM64 448l271.52 271.52 90.496-90.496-180.992-181.024 181.024-181.024-90.496-90.496-271.552 271.52z" />
<glyph unicode="&#xe938;" glyph-name="die" d="M832 704v-128h-256v-512h-128v512h-256v128h256v128h128v-128h256z" />
<glyph unicode="&#xe939;" glyph-name="dig" d="M374.4 313.6l89.6 89.6-336 339.2 89.6 89.6 339.2-339.2 89.6 89.6 249.6-249.6v-272h-268.8l-252.8 252.8z" />
<glyph unicode="&#xe93a;" glyph-name="divide" d="M736 586.048l-362.048-362.048-90.496 90.496 362.048 362.048 90.496-90.496z" />
<glyph unicode="&#xe93b;" glyph-name="download" d="M512.032 341.952l-271.52 271.52 90.496 90.528 181.024-181.024 181.024 181.024 90.496-90.496-271.52-271.552zM256 64h512v128h-512v-128z" />
<glyph unicode="&#xe93c;" glyph-name="dream" d="M896 704v-640h-768v640l128 128 128-128v-128h256v128l128 128 128-128z" />
<glyph unicode="&#xe93d;" glyph-name="drill" d="M896 640v-128h-128v-128h-384v-256h-128v256h-128v384h640v-128h128z" />
<glyph unicode="&#xe93e;" glyph-name="drink" d="M576 192h128v-128h-384v128h128v336.928l-207.072 207.072 90.496 90.496 181.024-181.024 181.024 181.024 90.528-90.496-208-208v-336z" />
<glyph unicode="&#xe93f;" glyph-name="drive" d="M768 576v256h-512v-256h-128v-384h128v-128h128v128h256v-128h128v128h128v384h-128zM384 320h-128v128h128v-128zM384 576v128h256v-128h-256zM768 320h-128v128h128v-128z" />
<glyph unicode="&#xe940;" glyph-name="drown" d="M704 416l192-192-96-96-96 96-96-96-96 96-96-96-96 96-96-96-96 96 192 192 96-96 96 96 96-96 96 96zM320 608l96-96 96 96 96-96 96 96 96-96 96 96-192 192-96-96-96 96-96-96-96 96-192-192 96-96 96 96z" />
<glyph unicode="&#xe941;" glyph-name="eat" d="M896 832v-384h-128v-384h-128v768h256zM384 704h-128v128h-128v-256h128v-512h128v512h128v256h-128v-128z" />
<glyph unicode="&#xe942;" glyph-name="enlarge" d="M192 832h256v-256h-64v-256h64v-256h-256v256h64v256h-64v256zM832 576v256h-256v-256h64v-256h-64v-256h256v256h-64v256h64z" />
<glyph unicode="&#xe943;" glyph-name="enter" d="M736 832v-256h-128v-512h-256v128h128v128h-128v128h128v128h-128v256h384z" />
<glyph unicode="&#xe944;" glyph-name="equal" d="M256 384h512v-128h-512v128zM256 640v-128h512v128h-512z" />
<glyph unicode="&#xe945;" glyph-name="explode" d="M704 704v-128h-128v128h-128v-128h-128v128h-128v128h640v-128h-128zM576 448v128h-128v-128h-128v128h-128v-512h640v512h-128v-128h-128z" />
<glyph unicode="&#xe946;" glyph-name="explore" d="M928 192v-128h-384v128h64v192h-192v-192h64v-128h-384v128h64v512h64v128h128v-128h64v-64h192v64h64v128h128v-128h64v-512h64z" />
<glyph unicode="&#xe947;" glyph-name="fight" d="M466.752 312.224l90.496-90.496-90.496-90.496-90.496 90.496-90.496-90.496-90.496 90.496 90.496 90.496-90.496 90.496 90.496 90.496 90.496-90.496 362.016 362.080 90.496-90.496-362.016-362.080z" />
<glyph unicode="&#xe948;" glyph-name="film" d="M896 576v128h-768v-128h128v-256h-128v-128h768v128h-128v256h128zM640 320h-256v256h256v-256z" />
<glyph unicode="&#xe949;" glyph-name="find" d="M896 832v-768h-128v256h-384v128h384v384h128zM256 576h384v256h-128v-128h-384v-640h512v128h-384v384z" />
<glyph unicode="&#xe94a;" glyph-name="finish" d="M708.544 490.048l-112-112 159.52-159.52-90.496-90.528-159.52 159.52-159.552-159.52-90.496 90.496 159.52 159.52-112 112-90.496-90.496-181.024 181.024 181.024 181.024 293.024-293.024 293.024 293.024 181.024-181.024-181.024-181.024-90.528 90.528z" />
<glyph unicode="&#xe94b;" glyph-name="fit" d="M128 768h320v-128h-128v-128h128v-128h-128v-128h128v-128h-320v640zM704 768v-128h-128v-128h128v-128h-128v-128h128v-128h192v640h-192z" />
<glyph unicode="&#xe94c;" glyph-name="flag" d="M832 832v-384h-512v-384h-128v768h640z" />
<glyph unicode="&#xe94d;" glyph-name="gamble" d="M192 768v-640h640v640h-640zM448 256h-128v128h128v-128zM704 512h-128v128h128v-128z" />
<glyph unicode="&#xe94e;" glyph-name="game" d="M896 576v-384h-160l-128 128h-192l-128-128h-160v384l128 128h96l64-64h224l64 64h64l128-128z" />
<glyph unicode="&#xe94f;" glyph-name="give" d="M832 576v-512h-640v512h640zM416 768l-96-96 96-96 96 96-96 96zM704 672l-96 96-96-96 96-96 96 96z" />
<glyph unicode="&#xe950;" glyph-name="groom" d="M330.976 629.024l181.024-181.024-181.024-181.024-181.024 181.024 181.024 181.024zM693.024 629.024l-181.024-181.024 181.024-181.024 181.024 181.024-181.024 181.024z" />
<glyph unicode="&#xe951;" glyph-name="grow" d="M832 448v-128h-192v-256h-256v128h-192v128h192v128h-128v128h128v256h256v-128h128v-128h-128v-128h192z" />
<glyph unicode="&#xe952;" glyph-name="hack" d="M969.6 560l-272-272-182.4 182.4-361.6-361.6-89.6 89.6 633.6 633.6 272-272z" />
<glyph unicode="&#xe953;" glyph-name="hammer" d="M838.4 57.6l-476.8 476.8-179.2-182.4-89.6 89.6 134.4 134.4-89.6 92.8 182.4 182.4 89.6-89.6 134.4 134.4 89.6-89.6-182.4-182.4 476.8-473.6-89.6-92.8z" />
<glyph unicode="&#xe954;" glyph-name="hang" d="M320 800v-704l192 192 192-192v704h-384zM576 544h-128v128h128v-128z" />
<glyph unicode="&#xe955;" glyph-name="harvest" d="M832 512v-448h-128v320h-128v-320h-128v320h-128v-320h-128v448h256v320h128v-320h256z" />
<glyph unicode="&#xe956;" glyph-name="home" d="M896 832v-768h-256v256h-256v-256h-256v768h128v-128h128v128h256v-128h128v128h128z" />
<glyph unicode="&#xe957;" glyph-name="hurt" d="M896 704v-256h-256v-384h-256v128h-256v256h128v-128h128v512h256v-256h128v128h128z" />
<glyph unicode="&#xe958;" glyph-name="impregnate" d="M576 256v128h320v-256h-768v256h320v-128h128zM896 512v256h-768v-256h320v-128h128v128h320z" />
<glyph unicode="&#xe959;" glyph-name="join" d="M896 512h-128v-256h-128v256h-256v-256h-128v256h-128v128h768v-128z" />
<glyph unicode="&#xe95a;" glyph-name="keep" d="M704 576v256h-384v-257.92l-128 0.16v-510.24h640v512h-128zM576 576h-128v128h128v-128z" />
<glyph unicode="&#xe95b;" glyph-name="kill" d="M864 704v-128h-128v-256h-128v128h-128v-384h-192v384h-128v256h704z" />
<glyph unicode="&#xe95c;" glyph-name="kiss" d="M896 448l-192-192h-384l-192 192 192 192 192-191.808 192 191.808 192-192z" />
<glyph unicode="&#xe95d;" glyph-name="label" d="M928 864h-361.6l-476.8-473.6 361.6-361.6 476.8 473.6v361.6zM640 576v128h128v-128h-128z" />
<glyph unicode="&#xe95e;" glyph-name="launch" d="M768 192h-192v-128h-128v128h-192l128 128v416l128 128 128-128v-416l128-128z" />
<glyph unicode="&#xe95f;" glyph-name="lift" d="M1024 512v-128h-128v-128h-128v-128h-128v256h-256v-256h-128v128h-128v128h-128v128h128v128h128v128h128v-256h256v256h128v-128h128v-128h128z" />
<glyph unicode="&#xe960;" glyph-name="listen" d="M704 640v-192l-128-128v-64l-128-128h-128v256h128v128h-128v128l128 128h128l128-128z" />
<glyph unicode="&#xe961;" glyph-name="locate" d="M874.048 448l-362.048-362.048-362.048 362.048 362.048 362.048 362.048-362.048z" />
<glyph unicode="&#xe962;" glyph-name="lock" d="M512 320v128h128v-256h-512v256h128v-128h256zM384 704v-256h128v128h256v-128h128v256h-512z" />
<glyph unicode="&#xe963;" glyph-name="marry" d="M896 512v-128h-256v-64h-256v64h-256v128h256v128h256v-128h256z" />
<glyph unicode="&#xe964;" glyph-name="merge" d="M634.496 719.52l-90.496-90.496 117.024-117.024h-213.024v320h-320v-128h192v-512h-192v-128h320v320h213.024l-117.024-117.024 90.496-90.496 271.552 271.52-271.552 271.52z" />
<glyph unicode="&#xe965;" glyph-name="narrow" d="M896 768l-320-320v-320h-128v320l-320 320h768z" />
<glyph unicode="&#xe966;" glyph-name="open" d="M896 800v-128h-256l-96-96 96-96-96-96 96-96-192-192-96 96 96 96-96 96 96 96-96 96 96 96h-320v128h768z" />
<glyph unicode="&#xe967;" glyph-name="pause" d="M320 704h128v-512h-128v512zM576 704v-512h128v512h-128z" />
<glyph unicode="&#xe968;" glyph-name="pay" d="M128 736v-576h768v576h-768zM768 288h-512v128h512v-128z" />
<glyph unicode="&#xe969;" glyph-name="perform" d="M320 512h128v-352h-128v352zM576 160h128v352h-128v-352zM66.656 768l-2.656-608h128v480h642.656l-2.656-480h128v608h-893.344z" />
<glyph unicode="&#xe96a;" glyph-name="photograph" d="M768 640v128h-128v-128h-512v-512h768v512h-128zM768 384h-128v128h128v-128z" />
<glyph unicode="&#xe96b;" glyph-name="ping" d="M832 576v-512h-128v512h128zM192 320h128v512h-128v-512zM512 320h128v128h-128v-128z" />
<glyph unicode="&#xe96c;" glyph-name="plug" d="M704 608v256h-384v-256h-64v-448h192v-128h128v128h192v448h-64zM576 608h-128v128h128v-128z" />
<glyph unicode="&#xe96d;" glyph-name="point" d="M512 810.048l-362.048-362.048 362.048-362.048 362.048 362.048-362.048 362.048zM330.976 448l181.024 181.024 181.024-181.024-181.024-181.024-181.024 181.024z" />
<glyph unicode="&#xe96e;" glyph-name="power" d="M832 224h-192v-160h-256v160h-192v384h128v256h128v-256h128v256h128v-256h128v-384z" />
<glyph unicode="&#xe96f;" glyph-name="prank" d="M704 832v-128h-384v128h-128v-768h640v768h-128zM448 448h-128v128h128v-128zM704 448h-128v128h128v-128z" />
<glyph unicode="&#xe970;" glyph-name="press" d="M128 704v-512h768v512h-768zM512 320h-256v256h256v-256z" />
<glyph unicode="&#xe971;" glyph-name="primp" d="M874.048 357.504l-271.52-271.52-452.576 452.512 271.52 271.52 90.528-90.496-90.496-90.496 90.496-90.528 90.496 90.496 90.496-90.496-90.496-90.496 90.496-90.496 90.528 90.496 90.528-90.496z" />
<glyph unicode="&#xe972;" glyph-name="print" d="M768 320h-512v512h512v-512zM128 192v-128h768v128h-768z" />
<glyph unicode="&#xe973;" glyph-name="produce" d="M896 576v-512h-256v256h-256v-256h-256v768h128v-128h128v-128h512z" />
<glyph unicode="&#xe974;" glyph-name="protect" d="M896 480l-80-80-80 80-80-80-80 80v-448h-128v448l-80-80-80 80-80-80-80 80 384 384 384-384z" />
<glyph unicode="&#xe975;" glyph-name="push" d="M576 576v-192h128v-320h-384v320h128v192h-64v64h-128v128h128v64h256v-64h128v-128h-128v-64h-64z" />
<glyph unicode="&#xe976;" glyph-name="race" d="M256 192h128v-128h-128v128zM128 832h768v-128h-768v128zM768 192h128v-128h-128v128zM128 320h128v-128h-128v128zM512 192h128v-128h-128v128zM384 320h128v-128h-128v128zM128 576h768v-128h-768v128zM640 320h128v-128h-128v128z" />
<glyph unicode="&#xe977;" glyph-name="rain" d="M448 512h128v-128h-128v128zM192 128h128v128h-128v-128zM704 384h128v128h-128v-128zM448 128h128v128h-128v-128zM192 640h128v128h-128v-128zM448 640h128v128h-128v-128zM704 768v-128h128v128h-128zM704 128h128v128h-128v-128zM192 384h128v128h-128v-128z" />
<glyph unicode="&#xe978;" glyph-name="record" d="M768 704v-512h-512v512h512z" />
<glyph unicode="&#xe979;" glyph-name="redo" d="M896 192v-128h-768v640h322.272l-117.024 116.928 90.496 90.432 271.52-271.52-271.52-271.488-90.496 90.56 117.024 117.088h-194.272v-384h640z" />
<glyph unicode="&#xe97a;" glyph-name="reflect" d="M256 832v-512h192v-256h128v256h192v512h-512zM640 448h-256v256h256v-256z" />
<glyph unicode="&#xe97b;" glyph-name="report" d="M192 608h128v-544h-128v544zM704 448v-384h128v384h-128zM448 64h128v768h-128v-768z" />
<glyph unicode="&#xe97c;" glyph-name="resize" d="M896 576v256h-256v-64h-256v64h-256v-256h64v-256h-64v-256h256v64h256v-64h256v256h-64v256h64zM704 320h-64v-64h-256v64h-64v256h64v64h256v-64h64v-256z" />
<glyph unicode="&#xe97d;" glyph-name="rule" d="M832 448v-384h-640v384h128v-128h128v128h128v-128h128v128h128z" />
<glyph unicode="&#xe97e;" glyph-name="save" d="M975.36 536.224l-271.52-271.52-271.488 271.52 90.56 90.496 117.088-116.992v194.272h-384v-640h-128v768h640v-322.272l116.928 117.024 90.432-90.528z" />
<glyph unicode="&#xe97f;" glyph-name="saw" d="M448 640l80-80-496-496 64-64h128v128h128v128h128v128h128v96l96-96 256 256-256 256-256-256zM704 544l-96 96 96 96 96-96-96-96z" />
<glyph unicode="&#xe980;" glyph-name="scare" d="M192 704v-640h640v640h-640zM448 448h-128v128h128v-128zM704 448h-128v128h128v-128z" />
<glyph unicode="&#xe981;" glyph-name="schedule" d="M768 704v128h-128v-128h-256v128h-128v-128h-128v-640h768v640h-128zM640 192h-128v256h-128v128h256v-384z" />
<glyph unicode="&#xe982;" glyph-name="search" d="M682.976 366.208l135.776 135.776-362.048 362.016-362.048-362.048 362.048-362.048 135.776 135.776 181.024-181.024 90.496 90.528-181.024 181.024zM456.704 320.928l-181.024 181.024 181.024 181.024 181.024-181.024-181.024-181.024z" />
<glyph unicode="&#xe983;" glyph-name="send" d="M64 768v-640h896v640h-896zM832 512h-128v-128h-128v-128h-128v128h-128v128h-128v128h128v-128h128v-128h128v128h128v128h128v-128z" />
<glyph unicode="&#xe984;" glyph-name="shine" d="M704 640v-128h128v-128h-128v-128h-128v-128h-128v128h-128v128h-128v128h128v128h128v128h128v-128h128zM832 128v128h-128v-128h128zM832 768h-128v-128h128v128zM192 768v-128h128v128h-128zM192 128h128v128h-128v-128z" />
<glyph unicode="&#xe985;" glyph-name="sit" d="M768 384v-320h-128v128h-256v-128h-128v768h128v-448h384z" />
<glyph unicode="&#xe986;" glyph-name="sleep" d="M896 672v-448h-128v128h-512v-128h-128v320h640v128h128z" />
<glyph unicode="&#xe987;" glyph-name="smell" d="M768 704v-128h128v-128l-384-384-384 384v128h128v128h-128v128h768v-128h-128z" />
<glyph unicode="&#xe988;" glyph-name="smoke" d="M768 448h-256v128h128v128h128v-256zM128 320v-128h768v128h-768z" />
<glyph unicode="&#xe989;" glyph-name="sound" d="M832 416l-96-96-96 96-96-96-96 96-96-96-192 192 96 96 96-96 96 96 96-96 96 96 192-192z" />
<glyph unicode="&#xe98a;" glyph-name="spin" d="M768 256h-192v-192h-128v192h-192v384h192v192h128v-192h192v-384z" />
<glyph unicode="&#xe98b;" glyph-name="spook" d="M512 736l-384-384 192-192 96 96 96-96 96 96 96-96 192 192-384 384zM512 352l-96 96 96 96 96-96-96-96z" />
<glyph unicode="&#xe98c;" glyph-name="stack" d="M192 512h640v-128h-640v128zM192 128h640v128h-640v-128zM192 768v-128h640v128h-640z" />
<glyph unicode="&#xe98d;" glyph-name="stamp" d="M864 448l-96-96 96-96-160-160-96 96-96-96-96 96-96-96-160 160 96 96-96 96 96 96-96 96 160 160 96-96 96 96 96-96 96 96 160-160-96-96 96-96z" />
<glyph unicode="&#xe98e;" glyph-name="steam" d="M640 512l-96-96 96-96-192-192-96 96 96 96-96 96 96 96-96 96 192 192 96-96-96-96 96-96z" />
<glyph unicode="&#xe98f;" glyph-name="stop" d="M320 896v-896h384v896h-384zM576 128h-128v128h128v-128zM576 384h-128v128h128v-128zM576 640h-128v128h128v-128z" />
<glyph unicode="&#xe990;" glyph-name="store" d="M512 800l-384-384v-352h768v352l-384 384zM768 192h-512v128h512v-128z" />
<glyph unicode="&#xe991;" glyph-name="strike" d="M672 768h-320l-160-160v-352l128-128h384l128 128v352l-160 160zM448 448h-128v128h128v-128zM576 320h-128v128h128v-128zM704 448h-128v128h128v-128z" />
<glyph unicode="&#xe992;" glyph-name="subtract" d="M768 512v-128h-512v128h512z" />
<glyph unicode="&#xe993;" glyph-name="swim" d="M576 800l-192-192-128 128-160-160 128-128-128-128 160-160 128 128 192-192 352 352-352 352zM544 448l96 96 96-96-96-96-96 96z" />
<glyph unicode="&#xe994;" glyph-name="tag" d="M832 512v128h-128v128h-128v-128h-128v128h-128v-128h-128v-128h128v-128h-128v-128h128v-128h128v128h128v-128h128v128h128v128h-128v128h128zM576 384h-128v128h128v-128z" />
<glyph unicode="&#xe995;" glyph-name="target" d="M192 768v-640h640v640h-640zM704 256h-384v384h384v-384zM576 384h-128v128h128v-128z" />
<glyph unicode="&#xe996;" glyph-name="time" d="M704 384h-256v256h128v-128h128v-128zM960 896v-896h-896v896h896zM832 768h-640v-640h640v640z" />
<glyph unicode="&#xe997;" glyph-name="tower" d="M896 832v-768h-768v192h384v576h128v-128h128v128h128z" />
<glyph unicode="&#xe998;" glyph-name="travel" d="M896 832v-480l-256-256-256 256-256-256v480l256 256 256-256 256 256z" />
<glyph unicode="&#xe999;" glyph-name="type" d="M128 832v-768h768v768h-768zM704 512h-128v-256h-128v256h-128v128h384v-128z" />
<glyph unicode="&#xe99a;" glyph-name="undo" d="M896 704v-640h-768v128h640v384h-194.272l117.024-117.12-90.496-90.56-271.52 271.488 271.52 271.52 90.496-90.432-117.024-116.896h322.272z" />
<glyph unicode="&#xe99b;" glyph-name="unlock" d="M512 320v128h128v-256h-512v256h128v-128h256zM384 704v-256h128v128h256v-128h128v256h-512z" />
<glyph unicode="&#xe99c;" glyph-name="upload" d="M768 576h-512v128h512v-128zM512.032 431.36l-271.52-271.52 90.496-90.496 181.024 181.024 181.024-181.024 90.496 90.496-271.52 271.52z" />
<glyph unicode="&#xe99d;" glyph-name="urbanize" d="M448 832v-128h-256v-640h640v768h-384zM448 192h-128v128h128v-128zM448 448h-128v128h128v-128zM704 320h-128v128h128v-128zM704 576h-128v128h128v-128z" />
<glyph unicode="&#xe99e;" glyph-name="use" d="M704 288h-128v128l128 128v192l-128 128h-128l-128-128v-192l128-128v-128h-128l-128-128v-224h640v224z" />
<glyph unicode="&#xe99f;" glyph-name="wait" d="M672 704v128h-320v-128h-160v-512h160v-128h320v128h160v512h-160zM704 320h-384v256h384v-256z" />
<glyph unicode="&#xe9a0;" glyph-name="watch" d="M128 832v-640h256v-128h256v128h256v640h-768zM768 320h-512v384h512v-384z" />
<glyph unicode="&#xe9a1;" glyph-name="wear" d="M832 736v-128h-128v-448h-384v448h-128v128h256v-128h128v128h256z" />
<glyph unicode="&#xe9a2;" glyph-name="weld" d="M672 704v128h-320v-128h-160v-512h160v-128h320v128h160v512h-160zM704 416h-384v160h384v-160z" />
<glyph unicode="&#xe9a3;" glyph-name="win" d="M832 320v-256h-640v384h192v128h256v-256h192z" />
<glyph unicode="&#xe9a4;" glyph-name="wonder" d="M832 192v-128h-640v128h128v512h384v-512h128z" />
<glyph unicode="&#xe9a5;" glyph-name="write" d="M783.52 176.48l-135.776 45.248-452.512 452.544 90.496 90.528 452.544-452.544 45.248-135.776z" />
<glyph unicode="&#xe9a7;" glyph-name="checkmark1" d="M0 409.6l102.4 102.4 256-256 563.2 563.2 102.4-102.4-665.6-665.6z" />
</font>
</defs>
</svg>
